<svg width="200" height="200" viewBox="0 0 200 200" fill="none" xmlns="http://www.w3.org/2000/svg">
<path fill-rule="evenodd" clip-rule="evenodd" d="M150.001 33.3334C152.042 33.3336 154.012 34.083 155.538 35.4393C157.063 36.7957 158.037 38.6646 158.276 40.6917L158.335 41.6667V54.7084L159.301 55.55L161.61 57.475C162.026 57.825 162.476 58.175 162.926 58.525C167.368 61.9834 172.735 65.4584 177.635 67.0917C178.673 67.4375 179.633 67.9845 180.46 68.7014C181.288 69.4184 181.965 70.2912 182.455 71.2701C182.945 72.2489 183.237 73.3147 183.315 74.4065C183.393 75.4984 183.255 76.5948 182.91 77.6334C182.564 78.6719 182.017 79.6322 181.3 80.4593C180.583 81.2865 179.71 81.9643 178.731 82.4541C177.752 82.944 176.686 83.2362 175.595 83.3141C174.503 83.3921 173.406 83.2542 172.368 82.9084C168.185 81.4486 164.186 79.5078 160.451 77.125L158.335 75.7584V116.667H183.335C185.459 116.669 187.501 117.482 189.046 118.94C190.59 120.399 191.52 122.391 191.644 124.512C191.769 126.632 191.079 128.72 189.716 130.349C188.352 131.977 186.419 133.024 184.31 133.275L183.335 133.333H158.335V158.333C158.332 160.457 157.519 162.5 156.061 164.045C154.603 165.589 152.61 166.519 150.49 166.643C148.369 166.768 146.281 166.078 144.653 164.715C143.024 163.351 141.977 161.418 141.726 159.308L141.668 158.333V133.333H58.3345V158.333C58.3322 160.457 57.5189 162.5 56.0608 164.045C54.6027 165.589 52.6099 166.519 50.4896 166.643C48.3692 166.768 46.2814 166.078 44.6526 164.715C43.0238 163.351 41.977 161.418 41.7262 159.308L41.6678 158.333V133.333H16.6679C14.5439 133.331 12.5009 132.518 10.9564 131.06C9.41198 129.602 8.48256 127.609 8.35808 125.488C8.23361 123.368 8.92347 121.28 10.2867 119.651C11.65 118.023 13.5837 116.976 15.6929 116.725L16.6679 116.667H41.6678V75.75C37.5345 78.5084 32.6845 81.225 27.6345 82.9084C26.596 83.2542 25.4995 83.3921 24.4077 83.3141C23.3159 83.2362 22.2501 82.944 21.2712 82.4541C19.2942 81.4649 17.7913 79.7308 17.0929 77.6334C16.3944 75.536 16.5578 73.247 17.5471 71.2701C18.5364 69.2931 20.2704 67.7901 22.3679 67.0917C27.2679 65.4584 32.6345 61.9834 37.0762 58.525L38.3928 57.475L40.7012 55.55L41.6678 54.7084V41.6667C41.6702 39.5427 42.4835 37.4998 43.9416 35.9553C45.3997 34.4108 47.3925 33.4814 49.5128 33.3569C51.6332 33.2325 53.721 33.9223 55.3498 35.2856C56.9786 36.6488 58.0253 38.5826 58.2762 40.6917L58.3345 41.6667V56.0167C60.5234 59.1479 63.1534 61.9462 66.1428 64.325C72.5845 69.4834 83.2762 75 100.001 75C116.726 75 127.418 69.4834 133.86 64.3334C137.135 61.7084 139.393 59.1167 140.793 57.2417L141.668 56.0167V41.6667C141.668 39.4566 142.546 37.337 144.109 35.7742C145.671 34.2113 147.791 33.3334 150.001 33.3334V33.3334ZM141.668 79.3084C137.371 82.3664 132.707 84.8722 127.785 86.7667L125.001 87.775V116.667H141.668V79.3084ZM108.335 91.275C103.689 91.7203 99.0162 91.7927 94.3595 91.4917L91.6678 91.275V116.667H108.335V91.275ZM58.3345 79.3084V116.667H75.0012V87.775L72.2179 86.775C68.0468 85.1644 64.0579 83.1169 60.3178 80.6667L58.3345 79.3084Z" fill="black"/>
</svg>
