<svg width="32" height="30" viewBox="0 0 32 30" fill="none" xmlns="http://www.w3.org/2000/svg">
<path d="M30.3158 25V26.6667C30.3158 28.5 28.8 30 26.9474 30H3.36842C1.49895 30 0 28.5 0 26.6667V3.33333C0 1.5 1.49895 0 3.36842 0H26.9474C28.8 0 30.3158 1.5 30.3158 3.33333V5H15.1579C13.2884 5 11.7895 6.5 11.7895 8.33333V21.6667C11.7895 23.5 13.2884 25 15.1579 25H30.3158ZM15.1579 21.6667H32V8.33333H15.1579V21.6667ZM21.8947 17.5C20.4968 17.5 19.3684 16.3833 19.3684 15C19.3684 13.6167 20.4968 12.5 21.8947 12.5C23.2926 12.5 24.4211 13.6167 24.4211 15C24.4211 16.3833 23.2926 17.5 21.8947 17.5Z" fill="black"/>
</svg>
